<svg width="234" height="73" viewBox="0 0 234 73" fill="none" xmlns="http://www.w3.org/2000/svg">
<g clip-path="url(#clip0_404_505)">
<path d="M92.5124 60.2836C92.9107 59.8744 92.8003 59.4277 92.8003 59.0219C92.807 54.5922 92.8036 50.159 92.807 45.7293C92.807 44.4369 92.817 44.4266 94.0455 44.4266C95.3276 44.4266 96.6096 44.4266 97.8917 44.4266C99.0465 44.4266 99.08 44.4573 99.08 45.6065C99.0833 48.7029 99.08 51.7993 99.08 54.8956C99.08 60.1233 99.08 65.3476 99.08 70.5753C99.08 71.7825 99.0766 71.7825 97.8615 71.7859C96.6063 71.7859 95.351 71.7381 94.099 71.8029C93.3358 71.8438 92.8471 71.5335 92.4053 70.9572C90.7851 68.8464 89.1449 66.7526 87.5147 64.6519C85.4728 62.0228 83.4342 59.3868 81.389 56.761C81.2249 56.5495 81.0844 56.1778 80.7697 56.2938C80.4182 56.4234 80.532 56.8326 80.532 57.1293C80.5253 61.4465 80.5253 65.7636 80.5253 70.0808C80.5253 70.3639 80.5053 70.6503 80.5287 70.9333C80.5789 71.5915 80.3145 71.8234 79.655 71.8029C78.1788 71.7586 76.6993 71.7552 75.2231 71.8029C74.4532 71.8268 74.2188 71.5472 74.2222 70.7697C74.249 64.9759 74.2188 59.1821 74.2456 53.3884C74.2557 50.8615 74.2757 48.3551 73.3284 45.9407C72.9368 44.945 73.3653 44.4471 74.4297 44.4403C76.0733 44.4266 77.7202 44.4573 79.3638 44.4232C79.9262 44.413 80.3145 44.6074 80.6492 45.0405C83.9464 49.2929 87.2536 53.5418 90.5575 57.7874C91.1969 58.6093 91.8496 59.4345 92.5124 60.2836Z" fill="#101125"/>
<path d="M136.334 8.90396C138.369 8.90396 140.408 8.8494 142.439 8.9176C145.911 9.03355 148.759 10.4215 150.527 13.5656C151.856 15.9356 152.053 18.4898 151.23 21.1189C150.584 23.1786 149.335 24.7507 147.561 25.876C146.969 26.2545 146.985 26.5956 147.283 27.1139C148.843 29.8488 150.4 32.5871 151.946 35.3288C152.432 36.1882 152.351 36.3143 151.37 36.3178C149.419 36.3212 147.467 36.2973 145.516 36.3314C144.953 36.3416 144.642 36.0995 144.398 35.6357C143.039 33.0782 141.666 30.5308 140.311 27.9732C140.103 27.5777 139.829 27.3867 139.383 27.3935C138.295 27.4072 137.207 27.4174 136.12 27.3867C135.49 27.3697 135.243 27.5743 135.256 28.2597C135.293 30.5888 135.246 32.9179 135.283 35.247C135.296 36.0552 135.045 36.3587 134.225 36.3314C132.665 36.2768 131.102 36.2939 129.542 36.3246C128.882 36.3382 128.658 36.0688 128.662 35.4209C128.672 26.8684 128.675 18.3192 128.658 9.76672C128.658 9.06765 128.953 8.89032 129.565 8.89373C131.818 8.91419 134.074 8.90396 136.334 8.90396ZM138.858 14.6432C137.884 14.6432 136.906 14.65 135.932 14.6398C135.497 14.6363 135.259 14.7864 135.263 15.2809C135.276 17.211 135.269 19.1411 135.266 21.0712C135.266 21.477 135.403 21.7293 135.835 21.7259C137.787 21.7123 139.745 21.8112 141.683 21.6509C143.758 21.4804 144.87 19.939 144.736 17.76C144.619 15.864 143.29 14.6602 141.285 14.6363C140.475 14.6329 139.668 14.6398 138.858 14.6432Z" fill="#101125"/>
<path d="M185.443 58.0844C185.443 53.8797 185.463 49.6751 185.426 45.4704C185.419 44.6349 185.69 44.403 186.484 44.4099C190.581 44.444 194.681 44.3689 198.779 44.444C201.684 44.4985 204.289 45.4397 206.27 47.7415C209.46 51.4449 209.139 58.3845 204.362 61.4467C203.679 61.8866 203.696 62.2072 204.081 62.8653C205.644 65.532 207.144 68.2362 208.664 70.9302C209.052 71.6191 208.982 71.7657 208.212 71.7725C206.176 71.7862 204.141 71.7657 202.106 71.7827C201.594 71.7862 201.313 71.5815 201.068 71.1246C199.729 68.6182 198.347 66.1322 197.015 63.6224C196.774 63.1688 196.476 63.0461 196.02 63.0529C194.933 63.0699 193.845 63.0802 192.757 63.0495C192.134 63.029 191.927 63.278 191.933 63.8986C191.957 66.2004 191.917 68.5022 191.957 70.8006C191.97 71.5338 191.769 71.8134 191.019 71.7896C189.46 71.7418 187.896 71.7486 186.336 71.7896C185.643 71.8066 185.416 71.5679 185.429 70.862C185.466 68.7307 185.443 66.6028 185.443 64.4715C185.443 62.3436 185.443 60.2157 185.443 58.0844ZM195.562 57.2284C196.342 57.2284 197.122 57.2387 197.902 57.225C199.97 57.1977 201.092 56.3452 201.44 54.2855C201.748 52.4816 200.807 50.5924 198.802 50.3366C196.754 50.074 194.681 50.2343 192.623 50.248C192.137 50.2514 191.93 50.456 191.937 50.9709C191.957 52.7885 191.96 54.6061 191.937 56.4202C191.93 57.0682 192.214 57.2557 192.804 57.2387C193.724 57.208 194.645 57.2284 195.562 57.2284Z" fill="#101125"/>
<path d="M124.507 22.5887C124.547 30.7729 118.318 36.7474 110.244 36.6622C102.327 36.5769 96.2752 30.3808 96.3623 22.5103C96.456 14.2169 102.582 8.33448 110.786 8.49135C118.887 8.64139 124.574 14.7045 124.507 22.5887ZM110.425 14.2987C107.784 14.193 105.815 15.4684 104.53 17.7123C102.669 20.9587 102.722 24.304 104.617 27.5367C107.117 31.8062 112.929 32.1302 115.841 28.1506C117.876 25.3747 118.161 22.3227 117.012 19.0627C116.058 16.3619 113.478 14.0634 110.425 14.2987Z" fill="#101125"/>
<path d="M185.199 24.5527C185.199 21.4564 185.138 18.3566 185.222 15.2636C185.269 13.5108 184.78 11.9115 184.308 10.2781C184.017 9.26867 184.305 8.91402 185.356 8.9106C191.937 8.90037 198.521 8.91061 205.102 8.89355C205.762 8.89355 205.973 9.13567 205.949 9.80064C205.902 11.076 205.889 12.3582 205.953 13.6336C205.993 14.4486 205.678 14.6532 204.938 14.6498C200.952 14.6259 196.961 14.6362 192.975 14.6396C191.857 14.6396 191.857 14.643 191.85 15.7683C191.847 16.7061 191.904 17.6473 191.833 18.5816C191.766 19.4751 192.114 19.6797 192.938 19.6695C196.312 19.6285 199.686 19.649 203.06 19.6524C203.994 19.6524 204.115 19.7752 203.874 20.6823C203.569 21.8349 203.415 23.0114 203.238 24.1844C203.117 24.9892 202.746 25.3575 201.902 25.3507C198.92 25.32 195.934 25.337 192.948 25.3405C191.88 25.3405 191.85 25.3746 191.847 26.4249C191.843 27.4479 191.897 28.4743 191.83 29.494C191.776 30.3499 192.151 30.575 192.901 30.5613C194.602 30.534 196.302 30.5545 198.006 30.5545C200.292 30.5545 202.582 30.5784 204.868 30.5443C205.685 30.5306 206.009 30.7864 205.953 31.6696C205.876 32.887 205.902 34.1146 205.946 35.3321C205.973 36.0482 205.775 36.3346 205.012 36.3312C198.709 36.3039 192.406 36.3073 186.102 36.3278C185.396 36.3312 185.185 36.0652 185.189 35.3764C185.212 31.7685 185.199 28.1606 185.199 24.5527Z" fill="#101125"/>
<path d="M213.393 60.5294C213.393 57.4603 213.353 54.3912 213.41 51.3255C213.444 49.4704 213.005 47.7347 212.419 46.0194C212.068 44.9963 212.413 44.4439 213.504 44.4337C215.231 44.4166 216.962 44.4269 218.692 44.4269C223.462 44.4269 228.229 44.4439 232.999 44.4098C233.779 44.403 234.033 44.6451 234.003 45.4192C233.96 46.6946 233.956 47.9768 234.003 49.2522C234.03 50.0058 233.749 50.2411 233.033 50.2343C229.213 50.2104 225.391 50.224 221.571 50.224C221.263 50.224 220.959 50.2411 220.651 50.2309C220.128 50.2138 219.907 50.432 219.928 50.9913C219.961 52.0143 219.934 53.0374 219.934 54.0604C219.934 55.2642 219.938 55.2676 221.159 55.2676C224.366 55.271 227.573 55.2676 230.78 55.2676C232.035 55.2676 232.055 55.271 231.884 56.5361C231.73 57.6887 231.54 58.8379 231.339 59.9803C231.205 60.7408 230.723 61.0375 229.97 61.034C226.957 61.017 223.944 61.0477 220.935 61.0102C220.189 61 219.871 61.208 219.921 62.0128C219.978 62.9471 219.934 63.8883 219.934 64.8261C219.934 66.0981 219.934 66.0981 221.149 66.0981C225.109 66.0981 229.069 66.1219 233.029 66.081C233.833 66.0708 234.033 66.3572 234.007 67.1074C233.963 68.3828 233.973 69.665 234.003 70.9438C234.017 71.5508 233.853 71.7963 233.207 71.7963C226.904 71.7759 220.6 71.7759 214.297 71.7929C213.598 71.7963 213.383 71.5372 213.39 70.8415C213.407 67.4041 213.393 63.9667 213.393 60.5294Z" fill="#101125"/>
<path d="M116.801 44.4266C117.832 44.4266 118.866 44.4402 119.897 44.4198C120.379 44.4095 120.664 44.5869 120.845 45.0609C122.143 48.4607 123.456 51.8504 124.768 55.2434C125.886 58.1352 127.011 61.027 128.132 63.9187C129.056 66.3058 129.98 68.6929 130.907 71.0799C131.084 71.5403 130.974 71.7824 130.452 71.779C128.473 71.7722 126.492 71.7654 124.513 71.7824C123.918 71.7858 123.754 71.3562 123.64 70.9299C123.288 69.617 122.625 68.4167 122.338 67.0833C122.224 66.5616 121.896 66.3331 121.31 66.3365C118.214 66.3706 115.121 66.357 112.024 66.3467C111.485 66.3433 111.187 66.4763 111.007 67.0799C110.605 68.4303 110.063 69.7364 109.621 71.0731C109.433 71.6358 109.099 71.7961 108.556 71.7892C106.94 71.7688 105.323 71.7824 103.703 71.779C102.588 71.7756 102.494 71.6494 102.893 70.623C103.666 68.6247 104.466 66.64 105.236 64.6417C106.625 61.044 108.001 57.443 109.38 53.8419C110.458 51.0251 111.539 48.2118 112.61 45.3917C112.868 44.7165 113.253 44.3413 114.046 44.4061C114.957 44.4846 115.88 44.4266 116.801 44.4266ZM116.6 60.6723C117.464 60.6723 118.331 60.6826 119.194 60.6689C120.035 60.6553 120.135 60.5155 119.844 59.7073C118.88 56.9996 117.902 54.2988 116.932 51.5946C116.878 51.4446 116.905 51.2263 116.681 51.2127C116.429 51.1991 116.373 51.4173 116.306 51.6015C116.048 52.3142 115.793 53.0337 115.539 53.7464C114.833 55.714 114.113 57.6748 113.43 59.6527C113.152 60.4575 113.323 60.6621 114.177 60.6689C114.983 60.6757 115.793 60.6689 116.6 60.6723Z" fill="#101125"/>
<path d="M155.705 53.5589C155.705 50.8308 155.729 48.1028 155.692 45.3781C155.682 44.6176 155.946 44.3926 156.662 44.413C158.165 44.4574 159.675 44.4744 161.178 44.4096C162.015 44.3721 162.226 44.6995 162.222 45.4906C162.199 50.3193 162.199 55.148 162.222 59.9801C162.229 61.3442 162.397 62.6741 163.14 63.8881C164.368 65.8864 166.206 66.5787 168.392 66.5071C171.91 66.3911 173.902 63.5437 173.875 60.5701C173.828 55.5982 173.861 50.6262 173.865 45.6543C173.865 44.4949 173.925 44.4335 175.04 44.4301C176.546 44.4267 178.052 44.4574 179.559 44.4198C180.255 44.4028 180.486 44.6756 180.483 45.3679C180.466 50.5683 180.586 55.7687 180.436 60.9622C180.302 65.6034 178.022 69.0783 173.891 71.0016C170.353 72.6521 166.644 72.7509 162.939 71.2812C159.009 69.7228 156.729 66.7867 155.829 62.6673C155.685 62.0125 155.705 61.3101 155.702 60.6315C155.695 58.2751 155.705 55.9153 155.705 53.5589Z" fill="#101125"/>
<path d="M177.59 18.8065C176.696 18.8065 175.803 18.7792 174.912 18.8167C174.333 18.8406 174.028 18.6394 173.774 18.0869C173.071 16.5626 172.067 15.2327 170.453 14.6905C167.103 13.5686 164.211 14.5609 162.594 17.6232C160.826 20.9685 160.873 24.4468 162.758 27.7648C164.231 30.3565 167.046 31.5057 169.848 30.6941C171.712 30.1553 172.981 28.7913 173.777 27.0282C174.045 26.4349 174.35 26.2166 174.962 26.2269C176.72 26.2541 178.477 26.2507 180.235 26.2303C180.814 26.2234 181.038 26.3633 180.897 27.018C180.278 29.9166 178.725 32.2048 176.432 33.9473C172.964 36.5799 169.001 37.3063 164.88 36.273C159.484 34.9192 156.026 31.3727 154.861 25.7665C153.907 21.1765 154.717 16.9071 157.723 13.2446C159.939 10.5472 162.835 9.08087 166.276 8.64097C169.941 8.17038 173.302 8.88309 176.308 11.086C178.718 12.849 180.278 15.2088 180.934 18.1892C181.068 18.7894 180.864 18.8099 180.435 18.8065C179.485 18.8031 178.537 18.8065 177.59 18.8065Z" fill="#101125"/>
<path d="M74.2321 24.7335C74.2321 22.3464 74.212 19.9628 74.2388 17.5757C74.2656 15.1068 74.2923 12.6549 73.3115 10.3019C72.9165 9.35052 73.2848 8.90721 74.3057 8.9038C80.7729 8.89357 87.2401 8.9038 93.7073 8.88675C94.3533 8.88334 94.514 9.15615 94.5006 9.75292C94.4705 11.059 94.4571 12.3685 94.5039 13.6711C94.5307 14.4145 94.2931 14.6532 93.5533 14.6464C89.677 14.6123 85.804 14.6294 81.9278 14.6328C80.7829 14.6328 80.7796 14.6396 80.7796 15.8365C80.7796 17.0573 80.7796 18.2782 80.7796 19.499C80.7829 20.6107 80.7896 20.6243 81.9177 20.6243C85.1245 20.6277 88.328 20.6243 91.5348 20.6277C92.606 20.6277 92.616 20.6482 92.4219 21.7496C92.2244 22.8647 92.0302 23.9798 91.8294 25.095C91.6319 26.193 91.4678 26.3396 90.3465 26.3431C87.5882 26.3499 84.8266 26.3431 82.0683 26.3465C80.7796 26.3465 80.7796 26.3499 80.7796 27.6696C80.7796 30.2272 80.7595 32.7813 80.7896 35.3389C80.7963 36.0618 80.5888 36.3517 79.8356 36.3278C78.3025 36.2767 76.7694 36.2767 75.2363 36.3278C74.4597 36.3517 74.212 36.0618 74.2153 35.2946C74.2488 31.7787 74.2321 28.2561 74.2321 24.7335Z" fill="#101125"/>
<path d="M140.41 44.4267C143.982 44.4267 147.55 44.4267 151.122 44.4267C152.209 44.4267 152.213 44.4302 152.213 45.5009C152.216 46.7217 152.159 47.9494 152.23 49.1668C152.28 50.0329 151.912 50.2444 151.162 50.2341C149.1 50.2103 147.034 50.2205 144.969 50.2273C143.717 50.2307 143.714 50.2376 143.714 51.4754C143.714 57.8694 143.714 64.2599 143.714 70.6538C143.714 71.7757 143.71 71.7792 142.586 71.7792C141.106 71.7826 139.627 71.7416 138.15 71.7962C137.327 71.8269 137.109 71.5098 137.113 70.7084C137.136 64.3144 137.126 57.9239 137.126 51.53C137.126 50.2273 137.123 50.2239 135.847 50.2205C133.782 50.2171 131.72 50.2035 129.655 50.2273C128.898 50.2376 128.533 50.0227 128.58 49.1565C128.647 47.9664 128.594 46.7695 128.597 45.5759C128.6 44.4233 128.6 44.4199 129.698 44.4199C133.27 44.4267 136.838 44.4267 140.41 44.4267Z" fill="#101125"/>
<path d="M230.267 14.6839C230.368 18.6737 227.291 21.5075 223.489 21.47C219.636 21.4325 216.734 18.5714 216.764 14.5816C216.791 10.7827 219.763 7.85005 223.599 7.88756C227.248 7.92166 230.378 10.6259 230.267 14.6839ZM223.489 10.7418C223.111 10.7827 222.675 10.7657 222.244 10.9601C219.502 12.1911 219.673 16.3003 221.293 17.7803C222.578 18.9533 224.881 18.9226 225.949 17.5927C227.04 16.2321 227.278 14.6873 226.699 13.0436C226.173 11.55 225.029 10.7452 223.489 10.7418Z" fill="#101125"/>
<path d="M223.281 23.0729C224.731 23.0729 226.184 23.0865 227.633 23.0661C228.195 23.0593 228.433 23.2571 228.42 23.8606C228.363 25.9885 228.734 25.8351 226.512 25.8453C225.199 25.8521 223.891 25.8794 222.578 25.8658C222.033 25.859 221.859 26.0977 221.825 26.6228C221.691 28.6996 221.708 28.7303 223.706 28.7303C224.737 28.7303 225.772 28.7337 226.803 28.7337C227.399 28.7337 227.646 28.9724 227.379 29.5794C227.355 29.6305 227.332 29.6817 227.315 29.7362C226.816 31.5368 226.816 31.5368 224.945 31.5368C224.219 31.5368 223.492 31.5845 222.769 31.5265C222.003 31.4652 221.795 31.813 221.822 32.5189C221.855 33.3987 221.835 34.2819 221.825 35.1617C221.815 36.2939 221.785 36.3211 220.711 36.3246C220.403 36.3246 220.098 36.3246 219.79 36.3246C218.729 36.3211 218.675 36.2734 218.669 35.1583C218.659 33.3407 218.662 31.5197 218.669 29.7021C218.672 27.8777 218.541 26.084 217.812 24.3722C217.46 23.5503 217.795 23.1138 218.766 23.0934C220.272 23.0627 221.778 23.0865 223.285 23.0865C223.281 23.0763 223.281 23.0763 223.281 23.0729Z" fill="#101125"/>
<path d="M5.18847 73C2.3231 73 0 70.6334 0 67.7143C0 64.7953 2.3231 62.4287 5.18847 62.4287C15.6491 62.4287 25.9892 57.3204 33.5543 48.4098C42.4852 37.8964 47.205 22.9841 47.205 5.28565C47.205 2.36661 49.5281 0 52.3935 0C55.2589 0 57.582 2.36661 57.582 5.28565C57.582 25.5621 51.9885 42.865 41.4006 55.3289C31.8639 66.5583 18.6618 73 5.18847 73Z" fill="#19C7A4"/>
</g>
<defs>
<clipPath id="clip0_404_505">
<rect width="234" height="73" fill="white"/>
</clipPath>
</defs>
</svg>
